<?xml version="1.0" standalone="no"?>
<!DOCTYPE svg PUBLIC "-//W3C//DTD SVG 20010904//EN"
 "http://www.w3.org/TR/2001/REC-SVG-20010904/DTD/svg10.dtd">
<svg version="1.0" xmlns="http://www.w3.org/2000/svg"
 width="182.000000pt" height="182.000000pt" viewBox="0 0 182.000000 182.000000"
 preserveAspectRatio="xMidYMid meet">

<g transform="translate(0.000000,182.000000) scale(0.100000,-0.100000)"
fill="#f20000" stroke="none">
<path d="M1730 1748 c-50 -77 -115 -142 -188 -184 -69 -40 -156 -109 -176
-138 -9 -15 -19 -39 -22 -56 -5 -25 -1 -35 27 -61 38 -35 34 -49 -22 -87 -19
-13 -36 -28 -37 -33 -4 -11 85 47 94 62 10 16 -5 59 -21 59 -21 0 -38 38 -30
67 14 56 40 79 229 202 56 36 126 112 165 176 50 82 33 75 -19 -7z"/>
<path d="M1810 1696 c0 -7 -11 -25 -24 -39 -13 -14 -22 -27 -20 -30 2 -2 -9
-16 -26 -32 -22 -21 -32 -25 -43 -17 -10 9 -17 5 -30 -18 -21 -35 -98 -93
-160 -119 -48 -21 -62 -33 -27 -24 22 6 50 -12 50 -33 0 -7 -7 -19 -15 -28
-13 -13 -13 -15 4 -21 42 -13 33 -75 -10 -75 -19 0 -19 -1 -3 -26 16 -24 16
-26 -4 -46 -18 -18 -23 -19 -37 -8 -15 12 -15 11 -4 -13 16 -34 -3 -62 -31
-47 -26 14 -27 13 -22 -21 4 -24 0 -31 -17 -36 -11 -3 -21 -11 -21 -18 0 -8
-8 -11 -22 -8 -22 4 -22 4 -4 -11 17 -14 20 -14 32 2 9 11 13 13 14 4 0 -7 5
-10 10 -7 13 8 33 -44 27 -73 -3 -17 -1 -22 10 -18 8 3 17 6 19 6 3 0 2 6 -3
13 -16 26 -40 107 -28 97 12 -10 25 -4 25 12 0 5 -5 6 -12 2 -7 -4 -8 -3 -4 5
10 16 23 5 46 -39 25 -48 25 -66 3 -79 -13 -8 -5 -9 32 -5 28 4 57 13 65 21
13 14 13 14 -6 3 -32 -20 -49 -8 -85 62 l-34 63 28 1 c20 1 37 -9 61 -36 18
-20 35 -42 37 -48 7 -19 73 1 77 23 3 18 2 19 -8 3 -20 -32 -53 -20 -114 42
-32 33 -55 60 -49 60 5 0 14 -5 21 -12 9 -9 15 -9 25 1 7 9 7 11 1 8 -7 -4
-14 0 -18 8 -7 19 -9 20 68 -15 36 -16 66 -34 66 -40 0 -6 5 -8 10 -5 19 12
-9 34 -71 56 -54 20 -77 39 -46 39 7 0 8 3 2 8 -5 4 -10 17 -11 30 0 18 5 22
30 23 l31 1 -30 8 c-16 4 -22 8 -12 9 9 0 16 6 15 13 -2 6 13 15 32 19 53 10
134 33 140 39 3 3 22 16 43 29 21 13 35 26 32 29 -3 3 -11 0 -17 -6 -23 -23
-28 -12 -12 31 8 23 20 50 25 59 7 14 5 16 -9 11 -15 -6 -14 -3 3 18 l20 24
-26 -22 c-14 -13 -34 -23 -44 -23 -16 0 -17 2 -3 18 13 16 15 37 7 72 -2 8 1
14 8 15 6 0 15 4 20 9 5 5 3 6 -4 2 -19 -11 -16 9 4 25 15 12 16 12 8 -1 -6
-12 -5 -12 5 -3 13 12 27 93 16 93 -3 0 -6 -6 -6 -14z m-74 -151 c11 -28 -7
-69 -48 -107 -49 -45 -41 -52 9 -8 37 33 70 39 80 14 7 -19 -14 -67 -26 -59
-5 3 -13 0 -17 -6 -5 -8 -3 -9 6 -4 8 5 11 3 8 -5 -6 -20 -89 -59 -140 -66
-40 -6 -46 -4 -44 11 1 9 9 21 17 26 10 8 8 9 -8 4 -38 -11 -26 3 22 24 25 11
45 22 45 25 0 3 -21 -4 -46 -15 -43 -20 -75 -18 -44 1 13 9 13 10 0 10 -10 0
-7 7 10 21 15 12 17 17 6 11 -13 -6 -23 -6 -31 1 -9 9 -1 19 34 40 25 16 63
45 84 63 39 36 74 44 83 19z"/>
<path d="M423 1363 c-8 -32 2 -87 63 -358 40 -176 73 -323 74 -327 0 -5 -40
-8 -89 -8 -89 0 -89 0 -95 -27 -4 -16 -9 -36 -12 -45 -5 -16 6 -18 108 -20
l112 -3 13 -60 c17 -85 16 -92 -17 -122 -34 -30 -38 -58 -11 -73 11 -5 84 -10
165 -10 166 0 165 1 124 -80 -15 -29 -36 -52 -60 -65 -43 -23 -54 -41 -37 -62
9 -10 39 -13 133 -11 117 3 121 4 121 25 0 14 -13 30 -35 45 -39 27 -45 42
-35 104 l6 44 124 0 c138 0 131 5 141 -85 6 -50 5 -54 -20 -70 -18 -12 -26
-25 -24 -39 3 -20 8 -21 204 -24 174 -2 203 0 214 14 12 13 9 20 -21 47 -34
32 -36 38 -123 407 -49 206 -93 390 -98 408 l-9 33 -132 -3 -131 -3 -9 -31
c-8 -27 37 -250 110 -552 5 -21 3 -22 -74 -22 -125 0 -125 -1 -80 166 37 136
37 140 23 193 -8 29 -17 55 -19 57 -2 2 -16 -44 -32 -103 -15 -60 -31 -114
-35 -122 -7 -13 -25 58 -146 572 l-59 247 -161 0 -162 0 -9 -37z"/>
<path d="M1775 1340 c-20 -13 -29 -28 -30 -46 0 -42 -42 -67 -127 -74 l-73 -6
55 -8 c87 -13 132 -54 108 -100 -7 -14 -7 -17 3 -14 18 6 31 60 17 69 -9 6 -7
14 6 28 15 16 16 21 5 22 -8 0 0 5 16 11 32 11 75 38 62 38 -5 0 -22 -7 -38
-16 -17 -8 -35 -14 -41 -12 -6 2 10 12 36 23 25 11 46 23 46 27 0 11 -18 10
-25 -2 -10 -17 -25 -11 -25 9 0 11 6 22 13 24 8 4 7 6 -3 6 -9 1 -3 9 15 21
17 11 26 20 20 19 -5 0 -23 -9 -40 -19z"/>
<path d="M1700 1260 c-9 -6 -10 -10 -3 -10 6 0 15 5 18 10 8 12 4 12 -15 0z"/>
<path d="M370 1178 c-1 -32 -187 -682 -204 -712 -14 -25 -37 -46 -68 -62 -38
-19 -48 -30 -48 -49 0 -14 8 -29 19 -35 26 -13 256 -13 282 0 32 18 23 47 -23
76 -24 15 -46 32 -50 38 -16 23 -6 76 64 332 l72 264 -13 63 c-11 54 -30 106
-31 85z"/>
<path d="M1285 1120 c-10 -11 -16 -22 -13 -25 3 -3 13 6 22 20 20 30 16 32 -9
5z"/>
<path d="M1235 1050 c-26 -28 -15 -31 12 -3 12 13 19 23 14 23 -4 0 -16 -9
-26 -20z"/>
<path d="M1383 956 c1 -11 9 -21 17 -23 10 -3 11 -2 4 4 -6 4 -14 15 -17 23
-5 11 -6 9 -4 -4z"/>
</g>
</svg>
